<svg id="Layer_1" data-name="Layer 1" xmlns="http://www.w3.org/2000/svg" xmlns:xlink="http://www.w3.org/1999/xlink" viewBox="0 0 309.5 308.65"><defs><style>.cls-1{fill:url(#radial-gradient);}.cls-2{fill:#1d1d1b;}</style><radialGradient id="radial-gradient" cx="154.75" cy="154.75" r="154.75" gradientUnits="userSpaceOnUse"><stop offset="0" stop-color="#fff"/><stop offset="1" stop-color="#f6a318"/></radialGradient></defs><circle class="cls-1" cx="154.75" cy="154.75" r="154.75"/><path class="cls-2" d="M121.55,158.65l1.18-16.11,2.93-63.48H113.55c.19-2,.4-5.13.63-9.52s.37-7.6.44-9.62H127.9V56a108.39,108.39,0,0,1,.88-16,22.28,22.28,0,0,1,3.27-9,20.89,20.89,0,0,1,6.74-6.1,28.11,28.11,0,0,1,9.52-3.52A60.1,60.1,0,0,1,159,20.46a96.58,96.58,0,0,1,23.53,3.13q.3,10.93,1.07,18.75A51.7,51.7,0,0,0,166.48,39a20,20,0,0,0-5.57.73,12.07,12.07,0,0,0-4.15,2,10.23,10.23,0,0,0-2.69,3.32,15,15,0,0,0-1.46,4.84,46.5,46.5,0,0,0-.39,6.39v3.62h24.9q-.59,6.74-1.17,19.14H152.52q-1.89,38.86-2.89,79.59-8.87-.19-14.13-.2T121.55,158.65Z"/><path class="cls-2" d="M161.81,158.65q.74-7.32,1-12.26.5-7.81.87-18t.52-19.39q4.75.11,7.13.1,2.19,0,7.09-.1-.66,8.49-1.06,16.21t-.59,17.68q-.19,10-.19,15.77-4.45-.1-7.14-.1Q166.95,158.55,161.81,158.65Zm2.67-58.16q.2-5,.2-7.71V91.22q4.44.09,7.22.09,3.81,0,7.08-.09c-.09.81-.16,1.74-.19,2.78l-.25,6.49q-3.71-.09-6.83-.09C169.62,100.4,167.22,100.43,164.48,100.49Z"/><path class="cls-2" d="M188.12,158.65q1.13-11.09,1.87-24.9t.85-24.76q4.5.11,7.19.1,3.18,0,6.75-.1l-.55,8.3a39,39,0,0,1,2.66-3.42,17.6,17.6,0,0,1,6.74-4.44,26.79,26.79,0,0,1,4.54-1.17,29.87,29.87,0,0,1,5.26-.44,30.83,30.83,0,0,1,8.32,1.1,14.37,14.37,0,0,1,6.42,3.49,11.64,11.64,0,0,1,3.23,5.22,22.55,22.55,0,0,1,.78,6q0,1.32-.15,4.2l-1,21.34q-.2,4.44-.24,9.47-3.85-.1-6.6-.1-3.72,0-7.48.1.39-4.25,1-14.82t.59-14a13.5,13.5,0,0,0-1.22-6.2,8.1,8.1,0,0,0-3.78-3.57,12.79,12.79,0,0,0-5.54-1.22,13.31,13.31,0,0,0-5.46,1.13,12.25,12.25,0,0,0-4.39,3.27,15.23,15.23,0,0,0-3,5.42A51.32,51.32,0,0,0,203.19,140q-.49,7-.78,18.7c-2.52-.07-4.78-.1-6.8-.1S191.06,158.58,188.12,158.65Z"/><path class="cls-2" d="M46.55,242.65l1.18-16.11,2.93-63.48H38.55c.19-1.95.4-5.13.63-9.52s.37-7.6.44-9.62H52.9V140a108.39,108.39,0,0,1,.88-16,22.28,22.28,0,0,1,3.27-9,20.89,20.89,0,0,1,6.74-6.1,28.11,28.11,0,0,1,9.52-3.52A60.1,60.1,0,0,1,84,104.46a96.58,96.58,0,0,1,23.53,3.13q.3,10.93,1.07,18.75A51.7,51.7,0,0,0,91.48,123a20,20,0,0,0-5.57.73,12.07,12.07,0,0,0-4.15,2,10.23,10.23,0,0,0-2.69,3.32,15,15,0,0,0-1.46,4.84,46.5,46.5,0,0,0-.39,6.39v3.62h24.9q-.59,6.74-1.17,19.14H77.52q-1.89,38.87-2.89,79.59-8.86-.19-14.13-.2T46.55,242.65Z"/><path class="cls-2" d="M131.14,231.56q-.63,2.9-1.8,10.36c-3.52.74-6.48,1.25-8.89,1.51a67.73,67.73,0,0,1-7.28.39,47,47,0,0,1-11.45-1.27,20.64,20.64,0,0,1-8.86-4.66,20.24,20.24,0,0,1-5.61-8.31,29.74,29.74,0,0,1-1.81-10.35,33,33,0,0,1,2.1-11.63,24,24,0,0,1,5.88-9.22,21.71,21.71,0,0,1,8.62-5.07,33.89,33.89,0,0,1,10.11-1.49,35.27,35.27,0,0,1,9.47,1.24,18,18,0,0,1,7.55,4.07,19.07,19.07,0,0,1,4.68,6.8,23,23,0,0,1,1.64,8.84,23.68,23.68,0,0,1-.49,4.73l-35.79.05c-.07,1.21-.1,2.17-.1,2.88a15.88,15.88,0,0,0,1.12,6,12.38,12.38,0,0,0,3.28,4.64,13.48,13.48,0,0,0,5.12,2.8,19.9,19.9,0,0,0,5.86.91,39.88,39.88,0,0,0,7.3-.74A73.52,73.52,0,0,0,131.14,231.56ZM99.6,211.84l22.85,0a31.62,31.62,0,0,0-.14-3.46,13,13,0,0,0-.66-2.55,8.73,8.73,0,0,0-1.4-2.53,8.08,8.08,0,0,0-2-1.82,9.35,9.35,0,0,0-2.71-1.12,13.31,13.31,0,0,0-3.29-.39,12.7,12.7,0,0,0-4,.63,12.2,12.2,0,0,0-3.54,1.85,11,11,0,0,0-2.61,2.72,12.91,12.91,0,0,0-1.49,2.9A29.85,29.85,0,0,0,99.6,211.84Z"/><path class="cls-2" d="M142.81,242.65l1.42-23.19.39-13.48q.09-4.15.09-8.35c0-.49,0-2-.09-4.64q4.53.1,6.69.1,2.49,0,6.59-.1l-.24,6.89a29.39,29.39,0,0,1,3.17-3.94,14.35,14.35,0,0,1,2.95-2.22,14.06,14.06,0,0,1,3.64-1.41,17,17,0,0,1,8.11,0c0,3,.14,6.87.44,11.52a20.22,20.22,0,0,0-5.23-.78,13.57,13.57,0,0,0-5,.85,11.41,11.41,0,0,0-3.91,2.59,14,14,0,0,0-2.86,4.27,19.32,19.32,0,0,0-1.36,5.33c-.26,1.69-.47,4.59-.65,8.69s-.26,8.14-.26,12.11q0,2.3.15,5.76-3.72-.1-6.8-.1T142.81,242.65Z"/><path class="cls-2" d="M181.68,242.65q.75-7.32,1-12.26.5-7.81.87-18t.52-19.39q4.75.1,7.14.1,2.17,0,7.08-.1-.66,8.49-1.06,16.21t-.59,17.68q-.19,10-.19,15.77-4.44-.1-7.13-.1T181.68,242.65Zm2.68-58.16c.12-3.35.19-5.92.19-7.71v-1.56q4.44.09,7.23.09,3.81,0,7.08-.09c-.1.81-.17,1.74-.2,2.78l-.24,6.49q-3.72-.09-6.84-.09T184.36,184.49Z"/><path class="cls-2" d="M252.68,231.56q-.65,2.9-1.81,10.36c-3.52.74-6.48,1.25-8.89,1.51a67.68,67.68,0,0,1-7.27.39,46.91,46.91,0,0,1-11.45-1.27,20.67,20.67,0,0,1-8.87-4.66,20.34,20.34,0,0,1-5.61-8.31A29.74,29.74,0,0,1,207,219.23a33,33,0,0,1,2.1-11.63,23.9,23.9,0,0,1,5.89-9.22,21.6,21.6,0,0,1,8.61-5.07,34,34,0,0,1,10.11-1.49,35.27,35.27,0,0,1,9.47,1.24,18,18,0,0,1,7.55,4.07,19.22,19.22,0,0,1,4.69,6.8,23,23,0,0,1,1.63,8.84,23.68,23.68,0,0,1-.49,4.73l-35.79.05c-.06,1.21-.1,2.17-.1,2.88a15.69,15.69,0,0,0,1.13,6,12.47,12.47,0,0,0,3.27,4.64,13.45,13.45,0,0,0,5.13,2.8,19.85,19.85,0,0,0,5.86.91,40,40,0,0,0,7.3-.74A74,74,0,0,0,252.68,231.56Zm-31.55-19.72,22.85,0a29.24,29.24,0,0,0-.14-3.46,13,13,0,0,0-.66-2.55,8.71,8.71,0,0,0-1.39-2.53,8.25,8.25,0,0,0-2-1.82,9.47,9.47,0,0,0-2.71-1.12,13.45,13.45,0,0,0-3.3-.39,12.75,12.75,0,0,0-4,.63,12.33,12.33,0,0,0-3.54,1.85,11.34,11.34,0,0,0-2.61,2.72,13.34,13.34,0,0,0-1.49,2.9A29.85,29.85,0,0,0,221.13,211.84Z"/></svg>